<svg height="256" viewBox="0 0 256 256" width="256" xmlns="http://www.w3.org/2000/svg"><path d="m148.99995 16.00056c-21.96735.02506-40.2051 16.974957-41.8361 38.882103-7.714396-6.993263-17.751951-10.871673-28.163725-10.882733-23.196542 0-41.999895 18.803353-41.999895 41.999895.02506 17.777155 11.239452 33.612515 27.99993 39.538705v30.46112c0 7.75598 6.243844 13.99996 13.999965 13.99996h83.999785c7.75613 0 13.79417-6.24678 13.99997-13.99996v-13.99996l41.99989 27.99992v-83.999785l-41.99989 27.999925v-24.772933c8.88801-7.949601 13.97784-19.303152 13.99996-31.226922 0-23.196542-18.80335-41.999895-41.99989-41.999895zm-83.99979 167.99958v55.99986h13.999965v-55.99986zm41.9999 0v55.99986h13.99996v-13.99996h13.99996c7.73191 0 13.99997-6.26807 13.99997-13.99997v-13.99996c0-7.73191-6.27534-14.33597-13.99997-13.99997h-13.99996zm69.99982 0c-7.7319 0-13.99997 6.26806-13.99997 13.99996v27.99993c0 7.73191 6.26807 13.99997 13.99997 13.99997h13.99996c7.73191 0 13.99997-6.26806 13.99997-13.99997v-27.99993c0-7.7319-6.26806-13.99996-13.99997-13.99996zm-55.99986 13.99996h13.99996v13.99997h-13.99996zm55.99986 0h13.99996v27.99993h-13.99996z" fill="#fc7f7f" stroke-width="14"/></svg>
